#!OML:ASF X:\für Bonn\!DataBase\2005_08_11_Bastian_Final\c3d\Bastian.ASF
:FULLY-SPECIFIED
:DEGREES
290
root 17.1518 17.2563 -2.3202 1084.72 -65.6319 -4.22059
lowerback 43.6913 5.7375 -1.34456
upperback 18.7047 4.11469 -0.676927
thorax 0.468907 1.14847 -1.47287
lowerneck -9.33002 -9.90255 -0.479098
upperneck -21.7926 -11.6332 20.3582
head -3.61004 -7.36751 6.42542
rclavicle -1.16538e-014 2.10091e-014
rhumerus 22.0339 39.438 -61.1187
rradius 29.6477
rwrist -14.6341
rhand -21.5055 8.00607
rfingers 7.12502
rthumb 4.88627 -21.9176
lclavicle -1.16538e-014 2.10091e-014
lhumerus -5.83665 -20.5431 -277.604
lradius 24.8509
lwrist -332.956
lhand -14.8072 -9.44792
lfingers 7.12502
lthumb 11.3507 20.2249
rfemur -16.8935 -8.8554 23.0792
rtibia 43.4995
rfoot -18.8863 -11.1301
rtoes -3.60806
lfemur -20.4277 -4.85792 -17.9734
ltibia 36.4213
lfoot -9.04302 -9.65009
ltoes -16.7205
291
root 17.089 17.2581 -2.27556 1084.7 -66.0992 -4.61964
lowerback 42.822 5.74214 -1.53219
upperback 18.702 4.1115 -0.637512
thorax 0.67647 1.1356 -1.31062
lowerneck -9.57203 -9.85091 -0.439898
upperneck -21.4701 -11.6362 20.2047
head -3.48762 -7.3266 6.33688
rclavicle 5.27773e-014 -1.73638e-013
rhumerus 20.8422 39.6558 -61.5823
rradius 29.9494
rwrist -14.5809
rhand -21.6302 7.93815
rfingers 7.12502
rthumb 4.76584 -21.9882
lclavicle 5.27773e-014 -1.73638e-013
lhumerus -5.72177 -20.3187 -277.627
lradius 24.6686
lwrist -333.065
lhand -15.0376 -9.42084
lfingers 7.12502
lthumb 11.1284 20.2641
rfemur -16.1276 -8.46254 23.0827
rtibia 43.3329
rfoot -18.7626 -11.2236
rtoes -4.99711
lfemur -19.6292 -4.62083 -17.9225
ltibia 36.4326
lfoot -9.42872 -9.50467
ltoes -16.2801
292
root 17.0248 17.2575 -2.2297 1084.75 -66.5546 -5.10115
lowerback 41.9262 5.7098 -1.68972
upperback 18.7028 4.07982 -0.600591
thorax 0.903908 1.11103 -1.15469
lowerneck -9.79301 -9.78552 -0.387686
upperneck -21.1358 -11.6223 20.0349
head -3.36929 -7.27756 6.2434
rclavicle 1.88845e-015 1.12711e-013
rhumerus 19.6902 39.9036 -62.0615
rradius 30.2117
rwrist -14.3784
rhand -21.7872 7.91534
rfingers 7.12502
rthumb 4.61426 -22.0144
lclavicle 1.88845e-015 1.12711e-013
lhumerus -5.6379 -19.8986 -277.633
lradius 24.5012
lwrist -333.394
lhand -15.2267 -9.4179
lfingers 7.12502
lthumb 10.9461 20.2768
rfemur -15.3975 -8.07766 23.1173
rtibia 43.2353
rfoot -18.7152 -11.3365
rtoes -6.25497
lfemur -18.8352 -4.36443 -17.8411
ltibia 36.4596
lfoot -9.84532 -9.37712
ltoes -16.0475
293
root 16.9612 17.2568 -2.18305 1084.73 -67.035 -5.46588
lowerback 41.0695 5.69093 -1.8816
upperback 18.6409 4.05809 -0.584802
thorax 1.05827 1.09289 -1.00873
lowerneck -9.88514 -9.72422 -0.278281
upperneck -20.8193 -11.6086 19.8336
head -3.28415 -7.23627 6.14071
rclavicle -2.72335e-014 5.09883e-014
rhumerus 18.41 40.0205 -62.7221
rradius 30.4457
rwrist -14.0945
rhand -21.8877 7.91293
rfingers 7.12502
rthumb 4.51724 -22.0189
lclavicle -2.72335e-014 5.09883e-014
lhumerus -5.61983 -19.5893 -277.643
lradius 24.3697
lwrist -333.636
lhand -15.382 -9.35273
lfingers 7.12502
lthumb 10.7963 20.3498
rfemur -14.7562 -7.74589 23.0929
rtibia 43.234
rfoot -18.614 -11.3691
rtoes -7.59833
lfemur -18.0636 -4.14799 -17.8167
ltibia 36.4686
lfoot -10.2051 -9.19581
ltoes -15.383
294
root 16.8962 17.2581 -2.13545 1084.89 -67.4994 -6.02613
lowerback 40.2643 5.64136 -2.00693
upperback 18.529 4.02905 -0.530512
thorax 1.14969 1.07495 -0.855236
lowerneck -9.94721 -9.67687 -0.368887
upperneck -20.4449 -11.5931 19.7244
head -3.16287 -7.17991 6.09453
rclavicle 9.14409e-015 -6.54995e-014
rhumerus 17.0101 39.9996 -63.5186
rradius 30.5969
rwrist -13.5894
rhand -21.9545 8.01807
rfingers 7.12502
rthumb 4.45267 -21.9151
lclavicle 9.14409e-015 -6.54995e-014
lhumerus -5.70166 -19.2678 -277.577
lradius 24.324
lwrist -333.888
lhand -15.5472 -9.20001
lfingers 7.12502
lthumb 10.6369 20.5108
rfemur -14.1637 -7.3694 23.1459
rtibia 43.3251
rfoot -18.4897 -11.4187
rtoes -8.48678
lfemur -17.2704 -3.92168 -17.7182
ltibia 36.4486
lfoot -10.6049 -9.02731
ltoes -15.1422
295
root 16.8325 17.26 -2.08721 1084.93 -67.9623 -6.42739
lowerback 39.3565 5.55297 -2.1538
upperback 18.4992 3.9534 -0.537967
thorax 1.20927 1.03774 -0.737111
lowerneck -9.9888 -9.59555 -0.329315
upperneck -20.0169 -11.5534 19.4995
head -3.05072 -7.11132 5.99337
rclavicle -4.75095e-014 1.34975e-013
rhumerus 15.6176 40.0353 -64.3516
rradius 30.789
rwrist -13.1765
rhand -21.9307 8.09274
rfingers 7.12502
rthumb 4.47564 -21.84
lclavicle -4.75095e-014 1.34975e-013
lhumerus -5.81203 -18.8014 -277.562
lradius 24.2564
lwrist -334.225
lhand -15.6487 -9.03115
lfingers 7.12502
lthumb 10.5391 20.6846
rfemur -13.6604 -7.02225 23.1307
rtibia 43.5355
rfoot -18.2676 -11.4368
rtoes -9.62011
lfemur -16.4797 -3.70003 -17.6972
ltibia 36.3684
lfoot -10.9477 -8.87366
ltoes -14.6503
